<svg width="18" height="26" viewBox="0 0 18 26" fill="none" xmlns="http://www.w3.org/2000/svg">
<path d="M8.945 0.362305C9.60161 0.362305 10.2518 0.510677 10.8584 0.79895C11.465 1.08722 12.0162 1.50975 12.4805 2.04241C12.9448 2.57507 13.3131 3.20743 13.5644 3.90338C13.8157 4.59933 13.945 5.34525 13.945 6.09854V10.6875C13.945 12.2089 13.4182 13.6679 12.4805 14.7437C11.5429 15.8194 10.2711 16.4238 8.945 16.4238C7.61892 16.4238 6.34715 15.8194 5.40947 14.7437C4.47178 13.6679 3.945 12.2089 3.945 10.6875V6.09854C3.945 4.5772 4.47178 3.11816 5.40947 2.04241C6.34715 0.966656 7.61892 0.362305 8.945 0.362305ZM0 11.8348H2.015C2.25729 13.7447 3.09087 15.4907 4.36323 16.7533C5.6356 18.016 7.26168 18.7109 8.944 18.7109C10.6263 18.7109 12.2524 18.016 13.5248 16.7533C14.7971 15.4907 15.6307 13.7447 15.873 11.8348H17.889C17.6616 14.1622 16.7516 16.3319 15.3082 17.9881C13.8648 19.6442 11.9737 20.6885 9.945 20.9497V25.6017H7.945V20.9497C5.91613 20.6888 4.02478 19.6446 2.58118 17.9884C1.13757 16.3322 0.227413 14.1624 0 11.8348Z" fill="#444E72"/>
</svg>
